<svg version="1.1" id="Layer_1" xmlns="http://www.w3.org/2000/svg" xmlns:xlink="http://www.w3.org/1999/xlink" x="0px" y="0px"
	 width="100%" viewBox="0 0 150 150" enable-background="new 0 0 150 150" xml:space="preserve">
<path fill="#FDFEFE" opacity="1.000000" stroke="none" 
	d="
M86.000000,151.000000 
	C57.356819,151.000000 29.213638,151.000000 1.035228,151.000000 
	C1.035228,101.065201 1.035228,51.130363 1.035228,1.097764 
	C50.892963,1.097764 100.786179,1.097764 150.839691,1.097764 
	C150.839691,50.999588 150.839691,100.999748 150.839691,151.000000 
	C129.464066,151.000000 107.982033,151.000000 86.000000,151.000000 
M30.905779,142.393280 
	C35.029755,146.547256 38.611443,147.314438 43.912979,144.957977 
	C53.186775,140.835907 62.486526,136.762024 71.639130,132.383102 
	C74.835793,130.853714 77.419853,131.014069 80.557541,132.507950 
	C89.720146,136.870331 99.021721,140.943771 108.304359,145.050186 
	C116.444328,148.651108 123.351425,144.289261 122.917854,135.398758 
	C122.383949,124.450943 121.335785,113.520447 120.209023,102.613548 
	C119.822548,98.872536 120.447571,96.087570 123.085747,93.157295 
	C130.321426,85.120461 137.303238,76.838142 144.059052,68.391861 
	C148.982483,62.236465 146.370850,54.607994 138.894760,52.176815 
	C137.632385,51.766296 136.336105,51.450146 135.041794,51.149273 
	C125.823074,49.006317 116.552010,47.060986 107.414665,44.615341 
	C105.186546,44.018978 102.708458,42.212296 101.517830,40.250484 
	C95.993332,31.147736 90.975494,21.739531 85.595375,12.546548 
	C80.128403,3.205173 71.817207,3.310042 66.367699,12.715073 
	C60.943188,22.076937 55.699795,31.545183 50.157669,40.835960 
	C49.290951,42.288921 47.402081,43.609108 45.741348,44.033222 
	C35.769119,46.579910 25.733147,48.880116 15.703610,51.198353 
	C5.358957,53.589420 2.448153,61.450714 9.120094,69.633347 
	C15.535755,77.501686 21.988096,85.361275 28.845901,92.838028 
	C31.795462,96.053802 32.385281,99.323441 31.967926,103.267754 
	C31.006361,112.355339 29.909147,121.437401 29.317327,130.550964 
	C29.077168,134.249207 30.008802,138.023560 30.905779,142.393280 
z"/>
<path fill="#9DA0A3" opacity="1.000000" stroke="none" 
	d="
M30.656513,142.078278 
	C30.008802,138.023560 29.077168,134.249207 29.317327,130.550964 
	C29.909147,121.437401 31.006361,112.355339 31.967926,103.267754 
	C32.385281,99.323441 31.795462,96.053802 28.845901,92.838028 
	C21.988096,85.361275 15.535755,77.501686 9.120094,69.633347 
	C2.448153,61.450714 5.358957,53.589420 15.703610,51.198353 
	C25.733147,48.880116 35.769119,46.579910 45.741348,44.033222 
	C47.402081,43.609108 49.290951,42.288921 50.157669,40.835960 
	C55.699795,31.545183 60.943188,22.076937 66.367699,12.715073 
	C71.817207,3.310042 80.128403,3.205173 85.595375,12.546548 
	C90.975494,21.739531 95.993332,31.147736 101.517830,40.250484 
	C102.708458,42.212296 105.186546,44.018978 107.414665,44.615341 
	C116.552010,47.060986 125.823074,49.006317 135.041794,51.149273 
	C136.336105,51.450146 137.632385,51.766296 138.894760,52.176815 
	C146.370850,54.607994 148.982483,62.236465 144.059052,68.391861 
	C137.303238,76.838142 130.321426,85.120461 123.085747,93.157295 
	C120.447571,96.087570 119.822548,98.872536 120.209023,102.613548 
	C121.335785,113.520447 122.383949,124.450943 122.917854,135.398758 
	C123.351425,144.289261 116.444328,148.651108 108.304359,145.050186 
	C99.021721,140.943771 89.720146,136.870331 80.557541,132.507950 
	C77.419853,131.014069 74.835793,130.853714 71.639130,132.383102 
	C62.486526,136.762024 53.186775,140.835907 43.912979,144.957977 
	C38.611443,147.314438 35.029755,146.547256 30.656513,142.078278 
M96.244225,50.357471 
	C89.705864,38.996662 83.167496,27.635853 76.217010,15.558941 
	C70.141747,25.977982 64.099182,35.688801 58.767773,45.775505 
	C56.317139,50.411957 52.963722,52.671455 48.145496,53.635387 
	C42.940105,54.676781 37.755352,55.834190 32.591049,57.064590 
	C27.055122,58.383526 21.553488,59.846382 15.997714,61.256367 
	C16.326065,62.257366 16.346512,62.631496 16.539051,62.861679 
	C23.900267,71.662056 31.470673,80.298248 38.526287,89.336426 
	C40.471184,91.827820 41.792164,95.506439 41.814800,98.651718 
	C41.861168,105.092880 40.787266,111.537964 40.262596,117.988594 
	C39.784828,123.862587 39.423416,129.746048 38.951256,136.472427 
	C45.661251,133.489502 51.972275,131.550568 57.334251,128.125763 
	C69.739296,120.202408 81.689178,119.319710 94.032066,127.946060 
	C96.304932,129.534546 99.152550,130.299759 101.732903,131.449402 
	C105.315094,133.045441 108.895416,134.645630 112.897156,136.431778 
	C113.037003,134.628159 113.246902,133.649811 113.166313,132.695984 
	C112.244034,121.779793 111.084518,110.878487 110.452446,99.946373 
	C110.284973,97.049767 110.884590,93.447586 112.546440,91.228737 
	C117.819664,84.188072 123.778824,77.662712 129.435715,70.907066 
	C131.808731,68.073135 134.088623,65.161209 136.861237,61.726864 
	C131.241837,60.305286 126.598801,59.201439 121.995628,57.950844 
	C113.556900,55.658195 105.141693,53.278969 96.244225,50.357471 
z"/>
<path fill="#FDFDFD" opacity="1.000000" stroke="none" 
	d="
M96.480453,50.646656 
	C105.141693,53.278969 113.556900,55.658195 121.995628,57.950844 
	C126.598801,59.201439 131.241837,60.305286 136.861237,61.726864 
	C134.088623,65.161209 131.808731,68.073135 129.435715,70.907066 
	C123.778824,77.662712 117.819664,84.188072 112.546440,91.228737 
	C110.884590,93.447586 110.284973,97.049767 110.452446,99.946373 
	C111.084518,110.878487 112.244034,121.779793 113.166313,132.695984 
	C113.246902,133.649811 113.037003,134.628159 112.897156,136.431778 
	C108.895416,134.645630 105.315094,133.045441 101.732903,131.449402 
	C99.152550,130.299759 96.304932,129.534546 94.032066,127.946060 
	C81.689178,119.319710 69.739296,120.202408 57.334251,128.125763 
	C51.972275,131.550568 45.661251,133.489502 38.951256,136.472427 
	C39.423416,129.746048 39.784828,123.862587 40.262596,117.988594 
	C40.787266,111.537964 41.861168,105.092880 41.814800,98.651718 
	C41.792164,95.506439 40.471184,91.827820 38.526287,89.336426 
	C31.470673,80.298248 23.900267,71.662056 16.539051,62.861679 
	C16.346512,62.631496 16.326065,62.257366 15.997714,61.256367 
	C21.553488,59.846382 27.055122,58.383526 32.591049,57.064590 
	C37.755352,55.834190 42.940105,54.676781 48.145496,53.635387 
	C52.963722,52.671455 56.317139,50.411957 58.767773,45.775505 
	C64.099182,35.688801 70.141747,25.977982 76.217010,15.558941 
	C83.167496,27.635853 89.705864,38.996662 96.480453,50.646656 
z"/>
</svg>